<?xml version="1.0" encoding="UTF-8" standalone="no"?>
<!-- Created with Inkscape (http://www.inkscape.org/) -->
<svg xmlns:dc="http://purl.org/dc/elements/1.1/" xmlns:cc="http://creativecommons.org/ns#" xmlns:rdf="http://www.w3.org/1999/02/22-rdf-syntax-ns#" xmlns:svg="http://www.w3.org/2000/svg" xmlns="http://www.w3.org/2000/svg" xmlns:sodipodi="http://sodipodi.sourceforge.net/DTD/sodipodi-0.dtd" xmlns:inkscape="http://www.inkscape.org/namespaces/inkscape" id="svg2440" sodipodi:version="0.32" inkscape:version="0.46" width="926" height="1004" version="1.0" sodipodi:docname="testfest_scalable.svg" inkscape:output_extension="org.inkscape.output.svg.inkscape">
  <metadata id="metadata2445">
    <rdf:RDF>
      <cc:Work rdf:about="">
        <dc:format>image/svg+xml</dc:format>
        <dc:type rdf:resource="http://purl.org/dc/dcmitype/StillImage"/>
        <dc:title>PHP Test Fest Logo</dc:title>
        <dc:date>2009-03-06</dc:date>
        <dc:creator>
          <cc:Agent>
            <dc:title>Igor Feghali</dc:title>
          </cc:Agent>
        </dc:creator>
        <dc:description>Vectorized by Igor Feghali from the original PNG (designed by Vincent Pontier) using Inkscape</dc:description>
        <cc:license rdf:resource=""/>
        <dc:rights>
          <cc:Agent>
            <dc:title>The PHP Group</dc:title>
          </cc:Agent>
        </dc:rights>
        <dc:relation>http://qa.php.net/testfest.php</dc:relation>
        <dc:language>English</dc:language>
        <dc:subject>
          <rdf:Bag/>
        </dc:subject>
      </cc:Work>
    </rdf:RDF>
  </metadata>
  <defs id="defs2443">
    <inkscape:perspective sodipodi:type="inkscape:persp3d" inkscape:vp_x="0 : 526.18109 : 1" inkscape:vp_y="0 : 1000 : 0" inkscape:vp_z="744.09448 : 526.18109 : 1" inkscape:persp3d-origin="372.04724 : 350.78739 : 1" id="perspective2447"/>
  </defs>
  <sodipodi:namedview inkscape:window-height="752" inkscape:window-width="1280" inkscape:pageshadow="2" inkscape:pageopacity="0.0" guidetolerance="10.0" gridtolerance="10.0" objecttolerance="10.0" borderopacity="1.0" bordercolor="#666666" pagecolor="#ffffff" id="base" showgrid="false" inkscape:zoom="0.31796108" inkscape:cx="206.47934" inkscape:cy="487.10691" inkscape:window-x="0" inkscape:window-y="22" inkscape:current-layer="svg2440"/>
  <path id="path2503" d="M 244.43709,598.75 L 241.5,595.5 L 244.75,598.43709 C 246.5375,600.05249 248,601.51499 248,601.68709 C 248,602.45965 247.17487,601.77946 244.43709,598.75 z" style="fill: rgb(143, 147, 185);"/>
  <path id="path2497" d="M 519.25,999.50913 C 515.65878,997.94824 515.37743,997.23368 517.3122,994.58772 C 518.54697,992.89908 518.90312,992.8878 523.34715,994.39659 C 525.94466,995.27846 528.96862,996 530.06707,996 C 533.31402,996 538.75627,993.32392 539.91592,991.1571 C 542.05191,987.16598 540.01051,985.63795 529.70718,983.51567 C 525.9038,982.73225 525.26806,980.40802 528.0478,977.44912 C 529.94819,975.42625 530.05997,975 528.69009,975 C 527.77789,975 525.58761,973.70984 523.82279,972.13297 C 520.99908,969.60998 520.623,968.67147 520.68876,964.31199 C 520.77898,958.33166 522.89302,953.92443 527.11267,950.91977 C 530.97615,948.16873 538.79068,947.25644 543.12251,949.05075 C 545.86547,950.18692 546.42428,950.14024 547.48753,948.68617 C 548.61348,947.14634 548.84355,947.16965 550.49145,948.99055 C 551.91622,950.5649 552.03193,951.2566 551.06537,952.42124 C 550.3995,953.22355 549.7448,956.56898 549.61047,959.85553 C 549.29918,967.47145 545.91767,972.31389 538.8636,975.24543 C 532.58493,977.85473 532.42087,980 538.5,980 C 544.86529,980 547.40949,982.67467 546.73514,988.65746 C 546.14901,993.85763 543.99266,996.59703 538.5,999.11927 C 533.6725,1001.3361 523.90829,1001.5338 519.25,999.50913 z M 536.81024,970.64714 C 542.71849,967.36856 545.12634,957.60276 540.77749,954.5567 C 537.28756,952.11226 534.12621,952.67379 530.4,956.4 C 527.63902,959.16098 527,960.57059 527,963.9 C 527,970.60128 531.41764,973.63958 536.81024,970.64714 z M 265.117,986.09347 C 263.96617,985.36461 264.47855,980.96072 268.16936,959.85879 L 272.60472,934.5 L 280.5369,934.20371 C 289.44279,933.87106 295.99925,935.73314 298.50167,939.30585 C 299.32575,940.48239 299.98503,943.48238 299.96673,945.97251 C 299.93205,950.69201 298.50642,953.16636 294.02749,956.28076 C 292.66762,957.22634 292.1266,958 292.82524,958 C 293.52388,958 295.19901,959.19071 296.54775,960.64602 C 298.52743,962.78214 299,964.34285 299,968.74489 C 299,979.05185 294.65778,983.88215 283.56634,985.91335 C 276.45624,987.21544 267.03378,987.30744 265.117,986.09347 z M 285.66932,979.06305 C 290.35692,976.93471 292,974.58246 292,970 C 292,965.57767 290.36723,963.05139 286.45163,961.41534 C 283.66016,960.24899 275.00346,959.36817 274.99863,960.25 C 274.99788,960.3875 274.3235,964.325 273.5,969 C 271.31247,981.41863 271.19989,981.0037 276.75,980.97804 C 279.3625,980.96596 283.37619,980.10422 285.66932,979.06305 z M 288.94124,953.53038 C 294.42298,950.69567 294.94432,941.77708 289.70516,940.46214 C 288.40409,940.13559 285.36085,940.01052 282.9424,940.18421 C 278.56999,940.49822 278.54111,940.52535 277.81467,945 C 277.41287,947.475 276.85145,950.7375 276.56706,952.25 C 276.0587,954.95374 276.13453,955 281.07466,955 C 283.83822,955 287.37819,954.33867 288.94124,953.53038 z M 311.5697,984.6606 C 308.3218,981.41271 308.2633,977.91502 311.18013,961.36787 L 313.36025,949 L 316.68013,949 C 318.50606,949 320,949.15551 320,949.34559 C 320,949.53566 318.8985,955.64319 317.55223,962.91787 C 315.0207,976.59721 315.20145,980.09585 318.50518,981.36362 C 321.09538,982.35757 322.92149,982.13109 326.67376,980.35052 C 331.59159,978.01686 332.79697,975.64049 335.02775,963.88087 C 338.02653,948.07273 337.65319,949 341.01905,949 C 344.73661,949 344.73713,948.46389 341,968.5 C 339.35862,977.3 338.01215,984.8375 338.00784,985.25 C 338.00353,985.6625 336.39468,986 334.43261,986 C 331.23735,986 330.93641,985.77573 331.5476,983.85003 C 332.22406,981.71869 332.20138,981.72042 328.93038,984.04957 C 326.67301,985.65697 323.81595,986.53036 319.88509,986.81469 C 314.75708,987.18562 313.86313,986.95404 311.5697,984.6606 z M 386,986.29056 C 379.78475,984.00526 379.70511,980.97523 385.14466,953.75 L 389.29047,933 L 392.71262,933 C 395.50187,933 396.03927,933.32365 395.61838,934.75 C 395.33437,935.7125 393.27002,945.85022 391.03094,957.27826 C 386.86753,978.5279 386.7979,982 390.53518,982 C 391.43099,982 392,982.97113 392,984.5 C 392,986.44932 391.50439,986.98261 389.75,986.92105 C 388.5125,986.87763 386.825,986.59391 386,986.29056 z M 412.0964,985.73526 C 407.36426,983.30332 405.57726,979.55533 405.6586,972.2328 C 405.77967,961.3332 410.12608,953.77286 418.5,949.89586 C 423.78634,947.44837 429.08297,947.49082 432.28092,950.00633 L 434.83156,952.01266 L 435.83411,947.25633 C 436.38552,944.64035 437.14952,940.3625 437.53188,937.75 C 438.17718,933.34098 438.43429,933 441.11354,933 C 444.8027,933 444.85483,931.95417 439.69297,961.5 L 435.5,985.5 L 432.11483,985.82344 C 429.37438,986.08528 428.84465,985.84721 429.33344,984.57344 C 430.11279,982.5425 429.7227,982.58884 425.77417,984.99626 C 422.07315,987.25277 415.71741,987.59617 412.0964,985.73526 z M 424.47751,980.82829 C 428.16939,979.14616 430.87828,974.16398 432.37665,966.30023 C 433.88037,958.40842 433.14934,955.71871 429.03787,954.01569 C 426.86895,953.11729 425.46953,953.22844 422.13087,954.56431 C 416.2207,956.92909 412.5744,963.2843 412.53147,971.29529 C 412.50353,976.51033 412.81467,977.43999 415.30576,979.58455 C 418.42364,982.2687 420.65273,982.57098 424.47751,980.82829 z M 591.21393,984.72771 C 588.43266,981.76719 588.39266,978.17187 591,965.5 C 593.45352,953.57569 593.45747,954 590.89301,954 C 589.38256,954 588.95787,953.55216 589.39301,952.41821 C 589.72686,951.54823 590,950.45453 590,949.98776 C 590,949.521 591.01199,948.9953 592.24887,948.81955 C 593.98709,948.57256 594.6942,947.5651 595.36294,944.38277 C 596.10676,940.84319 596.71714,940.11546 599.71353,939.19585 L 603.19892,938.12615 L 602.47685,941.81308 C 601.15925,948.54092 601.12363,948.47596 606.31204,948.80732 C 610.61896,949.08239 611.09132,949.34481 610.81204,951.30732 C 610.545,953.18381 609.71243,953.5721 605.03846,954 L 599.57692,954.5 L 597.34326,965.5 C 596.11475,971.55 595.34042,977.28798 595.62253,978.25106 C 596.36146,980.77372 599.78196,982.29361 603.18744,981.61251 C 605.92098,981.0658 606.10809,981.21885 605.81527,983.76195 C 605.51489,986.37071 605.21498,986.5138 599.46393,986.79216 C 594.20679,987.04663 593.14215,986.78022 591.21393,984.72771 z M 671.31471,985.53634 C 662.04463,981.50451 661.91991,963.31538 671.09942,954.13588 C 675.8669,949.36839 681.17792,947.57046 688.43389,948.26767 C 700.31421,949.40922 701.48961,962.68002 690.19469,968.1478 C 686.59124,969.8922 684.5732,970.17145 678.42285,969.77674 L 671,969.30037 L 671,972.21593 C 671,976.18882 672.50801,978.69422 675.97998,980.48965 C 679.69617,982.41136 682.32916,982.39826 686.11755,980.43921 L 689.13578,978.87842 L 688.81789,982.14991 C 688.57453,984.65438 687.91386,985.58309 686,986.11102 C 681.78582,987.27349 674.66842,986.99497 671.31471,985.53634 z M 688.10212,962.71564 C 692.42783,959.80751 692.9802,956.68835 689.56568,954.45108 C 684.97059,951.44026 675.27376,955.41138 673.4889,961.03497 C 672.50017,964.15017 673.76949,965 679.41113,965 C 683.26556,965 685.62778,964.37911 688.10212,962.71564 z M 731.6737,981.31777 C 732.48981,978.19254 734.82498,966.15504 736.86296,954.56777 L 740.56838,933.5 L 743.81981,933.18398 C 746.76104,932.89812 747.02232,933.08893 746.55843,935.18398 C 745.19722,941.33162 743.92549,950.25882 744.3504,950.68374 C 744.61224,950.94557 745.99933,950.39132 747.43282,949.45206 C 751.67524,946.67232 758.41771,947.95104 762.84088,952.37422 C 766.13781,955.67114 766.46428,956.52493 766.81735,962.7734 C 767.24983,970.4272 765.96041,974.53433 761.44291,979.8923 C 755.82823,986.55159 744.92372,989.08764 739.67094,984.9558 L 737.07216,982.9116 L 735.79553,984.9558 C 735.09339,986.08011 733.54487,987 732.35439,987 C 730.21488,987 730.20702,986.93432 731.6737,981.31777 z M 750.99797,980.50105 C 757.587,977.09373 761.56742,967.38122 759.59518,959.52321 C 758.87337,956.64728 753.69,953.0095 750.30576,953.00374 C 745.64506,952.9958 743.13619,956.8439 741.02721,967.23518 C 738.87879,977.82082 739.0101,979.21169 742.30834,980.80554 C 745.40875,982.30379 747.66472,982.22474 750.99797,980.50105 z M 783.18982,985.04154 C 775.21933,980.02032 774.76652,964.59163 782.32069,955.42712 C 790.29326,945.755 808.04995,945.48436 810.34366,955 C 811.47031,959.67397 809.99618,963.13899 805.38664,966.65173 C 801.93087,969.28524 800.98364,969.5 792.82414,969.5 L 783.99924,969.5 L 783.99962,972.61514 C 784.00047,979.5942 791.19498,983.61668 798.33834,980.63199 C 801.90843,979.14031 801.99962,979.15704 801.98469,981.30103 C 801.9566,985.33477 800.52083,986.23205 793.36348,986.68884 C 787.64362,987.05388 785.94844,986.7794 783.18982,985.04154 z M 801.37788,962.67197 C 803.22379,961.46249 804,960.08306 804,958.01213 C 804,950.18654 790.93484,952.42397 786.49487,961.00991 C 785.36094,963.20271 785.30894,963.96821 786.26485,964.39606 C 788.74666,965.50687 798.802,964.35976 801.37788,962.67197 z M 819.75,985.83772 C 816.68674,984.71892 816.32589,983.30415 818.38542,980.48759 C 819.73277,978.64498 819.8815,978.64281 823.79802,980.40892 C 828.69493,982.61712 832.76457,981.64396 834.96683,977.73816 C 836.30148,975.37112 836.25642,974.94069 834.46683,972.96193 C 833.38507,971.76582 830.85504,969.94762 828.84453,968.92149 C 826.83402,967.89536 824.24652,965.85756 823.09453,964.39304 C 816.88913,956.50416 826.21683,946.59634 838.15047,948.40071 C 844.45028,949.35324 845.49159,950.19851 843.96779,953.12283 C 843.28651,954.43027 842.60686,955.64568 842.45748,955.82374 C 842.30809,956.00179 840.7612,955.41075 839.01994,954.51031 C 833.41481,951.61179 826.88682,954.91731 828.45549,959.85975 C 828.76694,960.84106 830.92937,962.68944 833.26089,963.96725 C 840.36405,967.86022 842,969.83932 842,974.53946 C 842,984.00907 830.59698,989.79937 819.75,985.83772 z M 858.10791,984.41006 C 855.4906,981.08268 855.46699,977.80983 857.97836,966.44934 C 860.51297,954.98369 860.50623,954 857.89301,954 C 856.38256,954 855.95787,953.55216 856.39301,952.41821 C 856.72686,951.54823 857,950.45453 857,949.98776 C 857,949.521 857.99986,948.9953 859.22191,948.81955 C 860.84975,948.58544 861.73973,947.44154 862.5506,944.54116 C 863.40798,941.47443 864.40297,940.27809 866.96592,939.2323 L 870.27444,937.88228 L 869.61451,942.00928 C 869.25154,944.27913 868.85229,946.66812 868.72729,947.31814 C 868.58446,948.06081 870.26513,948.61326 873.25,948.80479 C 877.53852,949.07997 878,949.34714 878,951.55479 C 878,953.85098 877.66598,954 872.51905,954 C 867.65042,954 866.98206,954.25137 866.5364,956.25 C 866.26047,957.4875 865.3519,961.56542 864.51735,965.31205 C 861.49254,978.89173 863.00187,982.97264 870.527,981.56091 C 873.754,980.95552 873.82347,981.01372 873.10358,983.71937 C 872.4097,986.32723 871.98635,986.51832 866.28978,986.79492 C 860.72322,987.0652 860.03973,986.86597 858.10791,984.41006 z M 355.01159,984.25 C 355.01796,983.2875 356.13775,976.425 357.5,969 C 358.86225,961.575 359.98204,955.1625 359.98841,954.75 C 359.99479,954.3375 358.82686,954 357.39301,954 C 355.42662,954 354.93517,953.61132 355.39301,952.41821 C 355.72686,951.54823 356,950.42323 356,949.91821 C 356,949.4132 358.475,949 361.5,949 C 365.2337,949 366.99978,949.40143 366.99932,950.25 C 366.99895,950.9375 365.64925,959.15 364,968.5 C 362.35075,977.85 361.00105,985.6125 361.00068,985.75 C 361.00031,985.8875 359.65,986 358,986 C 355.80511,986 355.00311,985.53035 355.01159,984.25 z M 452.00425,985.25 C 452.00659,984.8375 453.13159,978.22323 454.50425,970.55161 C 457.54529,953.55568 457.54168,954 454.63867,954 C 452.65915,954 452.35462,953.59577 452.75525,951.5 C 453.19896,949.17889 453.64425,949 458.97836,949 L 464.72357,949 L 461.88619,965.25 C 458.02039,987.38991 458.48293,986 454.98095,986 C 453.34143,986 452.00191,985.6625 452.00425,985.25 z M 476,984.83569 C 476,984.19532 477.16242,977.12618 478.58316,969.12649 C 480.0039,961.12679 480.92484,953.37419 480.62969,951.89847 C 480.16935,949.59676 480.47655,949.14206 482.79084,948.69965 C 486.1338,948.0606 487,948.56015 487,951.12711 C 487,953.08858 487.07484,953.0829 490.15837,950.88723 C 492.14053,949.47581 495.28986,948.47465 498.61505,948.1989 C 503.46536,947.79668 504.1707,948.01686 506.95668,950.80284 C 510.66296,954.50911 510.70559,955.58942 507.82282,972.75 L 505.59698,986 L 502.29849,986 C 500.48432,986 499,985.6368 499,985.19289 C 499,984.74898 499.9,979.48718 501,973.5 C 503.69054,958.85571 503.62203,956.45368 500.45468,954.37835 C 498.32569,952.98338 497.28912,952.89641 494.11748,953.84666 C 488.00884,955.67685 486.97841,957.62475 484.3987,972.2189 C 483.10752,979.52351 482.0396,985.6125 482.02555,985.75 C 481.93211,986.66437 476,985.76424 476,984.83569 z M 619.25347,984.75 C 619.51057,984.0625 621.659,972.1375 624.02775,958.25 L 628.33459,933 L 631.52876,933 L 634.72293,933 L 633.38146,941.25 C 631.52176,952.68708 631.42142,952.31399 635.73519,950.00194 C 642.88714,946.16872 650.92387,948.20927 652.95876,954.37504 C 653.86192,957.11165 653.67302,960.2247 652.00198,970.14243 C 649.26567,986.38268 649.41213,986 645.93261,986 C 644.31968,986 643,985.49054 643,984.86787 C 643,984.2452 643.9786,978.18417 645.17466,971.39891 C 647.60602,957.60576 647.14098,954.57546 642.4107,953.38823 C 638.76497,952.47321 631.22697,956.17688 630.53195,959.22466 C 629.7937,962.46195 626,984.18495 626,985.17489 C 626,985.6287 624.37686,986 622.39301,986 C 619.92478,986 618.9336,985.60536 619.25347,984.75 z M 362.05019,941.56047 C 361.3931,940.76873 361.0005,938.85623 361.17774,937.31047 C 361.44656,934.96603 362.0279,934.44886 364.68356,934.1916 C 367.09793,933.95771 368.14196,934.39673 369.00463,936.00865 C 371.33009,940.35381 365.14597,945.29066 362.05019,941.56047 z M 459.75,941.9199 C 456.19034,939.84659 458.22043,934 462.5,934 C 466.71115,934 468.44899,938.40816 465.42857,941.42857 C 463.62071,943.23643 462.21862,943.35774 459.75,941.9199 z M 615.19286,894.99079 C 607.0392,893.85045 598.77742,891.42764 592.91861,888.45876 C 587.23651,885.57942 579.6982,878.21825 576.70927,872.63032 C 574.50249,868.50466 574.5,868.43407 574.5,810 L 574.5,751.5 L 576.83728,747 C 585.57271,730.18156 607.36659,722.36813 638.05702,725.05179 C 653.37393,726.39115 662.64259,729.86406 670.68501,737.2773 C 679.19811,745.1244 681.97628,753.30333 681.99245,770.56634 C 682.00805,787.22419 678.58602,796.52189 669.32394,804.98692 C 661.205,812.40717 655.3136,814 635.98733,814 C 617.44817,814 612.13079,815.20255 606.7128,820.62054 C 600.9001,826.43323 599.72985,830.81453 600.15575,845.16933 C 600.61631,860.69202 602.38025,864.57118 610.86612,868.72293 C 618.08422,872.25441 630.85063,873.05746 639.55353,870.52746 C 648.60847,867.89512 654.96762,860.16184 654.99442,851.75 C 654.99946,850.16909 656.31871,850 668.64822,850 L 682.29643,850 L 681.68643,857.75 C 680.84582,868.42978 678.64906,874.12865 672.98326,880.32794 C 667.1484,886.7122 660.59645,890.41776 650.64107,892.96392 C 641.79425,895.22656 624.10898,896.23777 615.19286,894.99079 z M 608.89922,793.13606 C 610.7688,792.51123 618.4188,791.99012 625.89922,791.97804 C 640.95343,791.95373 645.09389,790.82824 650.18638,785.3761 C 653.92002,781.37878 655,777.9497 655,770.09218 C 655,760.35543 652.23803,755.46933 644.49039,751.5 C 639.0617,748.71873 637.86428,748.50167 628.06738,748.52294 C 616.43741,748.54818 610.2642,750.46015 604.74367,755.74677 C 600.72179,759.59823 600.01178,763.59784 600.00558,782.43709 L 600,799.37418 L 602.75,796.82316 C 604.2625,795.42009 607.02965,793.7609 608.89922,793.13606 z M 741.01694,894.9397 C 726.51144,893.13354 716.17193,888.33286 708.31694,879.75692 C 703.33587,874.31867 701.16377,867.94401 700.30722,856.25 L 699.70294,848 L 713.21218,848 L 726.72142,848 L 727.32573,853.10245 C 728.20425,860.52023 731.95851,866.30895 737.73587,869.15395 C 741.93209,871.22034 743.93046,871.5 754.5,871.5 C 764.91199,871.5 767.0955,871.20421 771,869.26484 C 776.4846,866.54062 779.54085,862.24234 781.07245,855.09906 C 783.04283,845.90931 781.13678,838.40951 775.36364,832.63636 C 771.32392,828.59664 769.13686,827.63259 744.14891,818.87698 C 731.79454,814.54809 719.80683,809.90476 717.50956,808.55847 C 711.86212,805.24885 706.31861,798.90933 703.13517,792.12001 C 700.63224,786.78204 700.5,785.69705 700.5,770.5 C 700.5,755.26487 700.62718,754.2287 703.16041,748.82485 C 711.05903,731.97561 726.11931,724.8743 754,724.85267 C 765.4537,724.84379 770.14163,725.27311 776.31395,726.89616 C 797.55845,732.48254 808,744.22749 808,762.53751 L 808,770 L 795.09974,770 L 782.19948,770 L 781.00443,765.01847 C 779.27206,757.79714 775.13167,752.60141 769.32416,750.36103 C 763.38894,748.07138 746.55214,747.77461 740.66423,749.85586 C 735.72776,751.60079 730.07241,756.58246 728.35104,760.70226 C 726.29648,765.61952 726.61711,776.32914 728.95615,780.91405 C 732.27372,787.41703 735.65096,789.28853 758.63933,797.36307 C 770.6627,801.5862 782.363,805.72548 784.64,806.56145 C 794.8793,810.32068 802.40017,818.01752 806.08868,828.51197 C 808.72039,835.99966 808.85672,862.11766 806.30533,870.01758 C 802.83207,880.7719 790.89548,889.97364 775.93539,893.42933 C 767.51949,895.37335 750.43456,896.11234 741.01694,894.9397 z M 833,881.76745 C 833,868.98808 832.9561,869.06279 840.5,869.00389 C 844.32618,868.97401 852.84659,864.97764 855.68339,861.88235 C 856.88425,860.57206 858.34675,858.23321 858.93339,856.6849 C 859.64044,854.81878 860,835.85673 860,800.4349 L 860,747 L 846.5,747 L 833,747 L 833,735.5 L 833,724 L 846.5,724 L 860,724 L 860,703 L 860,682 L 873.5,682 L 887,682 L 887,703 L 887,724 L 897,724 L 907,724 L 907,735.5 L 907,747 L 897.04476,747 L 887.08951,747 L 886.79476,805.75 L 886.5,864.5 L 883.72953,870.14151 C 877.23795,883.36032 862.58525,891.32315 842.25,892.68306 L 833,893.30165 L 833,881.76745 z M 459.22761,771.25 L 459.5,688.5 L 462.12539,683 C 466.01786,674.84553 471.14073,669.54856 478.76778,665.792 L 485.4516,662.5 L 521.7258,662.18293 L 558,661.86586 L 558,672.93293 L 558,684 L 528.81572,684 C 501.22949,684 499.39436,684.11477 495.30159,686.09605 C 492.29474,687.55164 490.13578,689.61413 488.23587,692.84605 L 485.5,697.5 L 485.20058,731.25 L 484.90116,765 L 514.45058,765 L 544,765 L 544,777.5 L 544,790 L 514.5,790 L 485,790 L 485,822 L 485,854 L 471.97761,854 L 458.95523,854 L 459.22761,771.25 z M 339.5,664.29317 C 318.69469,661.46946 300.47882,652.48979 286.902,638.36453 C 279.58105,630.74785 277.36342,627.12489 276.42324,621.24531 C 275.83217,617.549 275.40725,617.12302 270.14463,614.95104 C 260.22029,610.85508 252.69373,605.85006 245.11579,598.3073 L 237.73158,590.95738 L 238.44848,578.37369 C 239.69526,556.489 239.2318,520.56701 237.50828,505.5 C 233.29314,468.65127 223.38672,445.33956 208.77507,437.88525 C 205.30462,436.11476 203.37237,435.83965 197.05959,436.21723 C 186.53238,436.8469 179.49517,440.33825 170.44704,449.42047 C 160.37413,459.53132 154.67852,470.66436 149.21283,490.92636 C 146.72014,500.16708 146.62806,501.52586 146.56516,530 C 146.51958,550.63409 147.08543,566.95053 148.44793,584.29054 C 150.0308,604.43504 150.17657,610.12657 149.22574,614.65969 C 146.31975,628.51409 134.61984,635.05926 115.34342,633.61417 C 106.05413,632.91778 97.040657,630.38595 90.771788,626.71215 C 85.046164,623.35671 76.791747,614.50023 73.720634,608.41733 C 67.94845,596.98444 62.652249,576.07879 59.301297,551.5 C 57.816737,540.61094 57.533648,531.1117 57.557931,493 C 57.588562,444.92335 58.209205,433.81146 63.534306,386 C 71.172416,317.42118 88.609825,240.83303 103.98309,208.34188 C 111.50044,192.45408 118.92801,185.95497 136.8493,179.58401 C 158.7,171.81616 202.84656,167 252.19874,167 L 277.23838,167 L 283.10585,163.4357 C 294.28669,156.6437 334.48119,137.98487 349,132.84675 C 358.33474,129.54325 367.69498,127.99949 378.31538,128.01187 C 394.32301,128.03052 405.3824,131.92707 415.39161,141.07493 L 420.7837,146.003 L 432.14185,144.07238 C 458.31315,139.62388 474.66116,138.52857 515,138.52092 C 536.175,138.5169 555.6543,138.87814 558.28733,139.32368 L 563.07467,140.13374 L 560.11376,144.15996 L 557.15284,148.18617 L 535.32642,148.50978 C 495.50191,149.10023 458.44772,155.14202 425.04692,166.49115 C 409.36969,171.81806 410.69383,171.94446 406.77485,164.74694 C 399.32293,151.06085 383.85852,146.04892 364.42084,151.02025 C 350.51447,154.5769 304.52828,175.4504 290,184.80047 L 284.5,188.34015 L 252.5,188.53758 C 193.68964,188.90043 152.92327,194.37195 134.5,204.37512 C 129.03312,207.34344 128.16939,208.28843 124.77912,215.01059 C 110.83296,242.66276 92.88828,319.88775 85.572867,383.73478 C 74.736936,478.30797 75.845818,546.50392 88.878071,587.004 C 93.17058,600.34375 96.400396,605.06976 103.65044,608.61961 C 108.76385,611.1233 110.63263,611.48477 118.5,611.49187 L 127.5,611.5 L 127.81975,606 C 127.99561,602.975 127.34698,590.825 126.37835,579 C 123.95426,549.40698 123.92098,507.9828 126.31086,495 C 131.40529,467.32496 141.38326,446.48942 156.35103,432.2715 C 164.75518,424.28838 171.74523,420.03361 181.208,417.14131 C 195.85346,412.66493 209.16626,413.38412 220.27072,419.25157 C 226.98313,422.79831 236.89532,432.93773 241.91686,441.3939 C 249.23616,453.71948 255.06808,473.60889 258.66133,498.5 C 260.04172,508.0622 260.40732,517.94989 260.46098,547.17185 L 260.52831,583.8437 L 264.51416,587.05711 C 269.94038,591.43177 279.87953,596.01084 289.49085,598.56414 L 297.4817,600.68696 L 297.16633,607.59348 C 296.99288,611.39207 297.36129,615.85 297.98502,617.5 C 300.71821,624.7303 314.53823,634.7744 328.5,639.67766 C 336.02053,642.3188 337.48891,642.48757 353,642.49359 C 380.49316,642.50427 399.84668,636.73464 406.91374,626.42094 C 412.42355,618.3799 412.47792,617.74837 412.4894,561.65961 L 412.5,509.81921 L 415.5,510.34806 C 417.15,510.63893 422.775,511.78682 428,512.89893 C 442.58543,516.00335 460.69717,517.99279 480.5,518.66567 C 499.48244,519.31067 537.88226,517.75109 554.15502,515.67421 L 563.81003,514.44195 L 564.39401,517.97097 C 564.7152,519.91194 564.98294,533.938 564.98899,549.13999 L 565,576.77998 L 569.3903,582.74378 C 574.63636,589.87005 578.00256,592.41581 585.71132,595.08687 C 590.77966,596.84303 592.05272,596.93957 595.94164,595.86269 C 600.30256,594.65512 600.42069,594.68606 602.44164,597.56532 C 608.56564,606.29023 618.92893,611.75667 634.4902,614.47033 C 645.74504,616.43301 669.17442,616.45802 678.33479,614.51712 C 686.90091,612.70214 694.4895,609.26513 699.34671,605.00044 C 706.81958,598.43918 706.37824,604.44447 705.73096,518.13057 L 705.15076,440.76114 L 710.00727,432.29131 C 719.06523,416.49412 728.56787,392.50943 733.4673,373.07818 C 737.96281,355.24887 739.29176,342.33889 738.72527,322 C 738.12688,300.51594 735.83029,285.70207 730.6431,269.86697 C 726.28991,256.57785 723.81711,251.76271 715.56179,240.5 L 708.96499,231.5 L 729.2325,230.88783 C 740.37962,230.55113 768.46504,230.21363 791.64454,230.13783 L 833.78909,230 L 843.67191,233.96501 C 849.10747,236.14576 856.80086,238.48666 860.76833,239.16701 C 867.50196,240.32169 868.1655,240.27022 870.74096,238.39346 C 877.99574,233.10682 880.28706,219.45366 875.60647,209.40159 C 874.30077,206.59747 872.50343,204.02343 871.61237,203.68149 C 870.61535,203.2989 863.16716,206.60451 852.24613,212.27649 L 834.5,221.49318 L 809.5,221.85836 C 795.75,222.05921 765.92471,221.89513 743.22157,221.49374 L 701.94315,220.76392 L 691.22157,210.10477 C 685.00631,203.92569 677.24265,197.38725 672.75,194.54827 C 668.4875,191.85473 665.01116,189.16697 665.02479,188.57546 C 665.06114,186.99879 671.85526,177.99277 673.47818,177.37 C 675.16192,176.72389 680.57562,179.75618 697,190.54493 L 709.5,198.75586 L 719.5,199.39023 C 725,199.73914 751.55,200.10556 778.5,200.20452 L 827.5,200.38443 L 845.89437,190.95537 L 864.28874,181.52632 L 871.89437,181.54204 C 884.80474,181.56874 889.83548,185.49913 894.1284,198.91294 C 896.68662,206.90643 897.69634,223.92382 896.11499,232.39418 C 893.82594,244.65528 887.51973,254.18273 878.75255,258.62539 C 869.72438,263.20031 853.33084,261.46193 834.78757,253.96331 L 828.07513,251.2489 L 788.03757,251.7713 C 766.0169,252.05862 748,252.42702 748,252.58996 C 748,252.75289 749.32572,256.84931 750.94604,261.6931 C 758.49833,284.26991 762.36548,318.57249 760.18787,343.67055 C 757.44283,375.30854 747.30864,408.95189 731.80433,437.89789 L 726.77055,447.29577 L 727.13527,524.39789 L 727.5,601.5 L 724.56885,607.5 C 720.84952,615.11338 711.44882,624.52025 703.25373,628.82911 C 693.36064,634.03075 679.82764,637.0531 663.48083,637.71168 C 635.15588,638.85282 612.62812,633.83902 597.10803,622.93968 C 593.23941,620.22286 589.12433,618 587.9634,618 C 585.09281,618 571.53471,613.3828 568.19997,611.26957 C 559.88522,606.00051 552.52827,598.02204 546.66207,587.91214 C 544.19935,583.66786 544,582.46259 544,571.81771 C 544,565.48909 543.70351,555.46529 543.34112,549.54261 L 542.68224,538.77409 L 528.45798,539.48517 C 503.30344,540.74264 469.57955,540.31121 452.5,538.51344 C 443.7,537.58717 436.1272,536.75521 435.67155,536.66465 C 435.2159,536.57409 434.70394,553.15 434.53388,573.5 C 434.18949,614.70774 433.38031,622.22658 428.09893,633.29271 C 422.15672,645.7435 408.49664,655.32849 390.02204,660.01044 C 374.17287,664.02705 351.62334,665.93856 339.5,664.29317 z M 119.35484,397.48233 C 118.6017,395.51966 137.7729,296.97856 139.25542,295.19224 C 140.16422,294.0972 145.64112,293.90996 167.93935,294.21164 C 193.81917,294.56177 195.85162,294.72389 201.2656,296.86994 C 208.65095,299.79743 211.93921,302.61257 215.02084,308.64607 C 217.21529,312.94257 217.5,314.76325 217.5,324.5 C 217.5,333.60672 217.09765,336.55997 215.16231,341.65845 C 212.23871,349.36045 205.17595,358.18657 198,363.10567 C 189.83243,368.70452 183.12266,370.26166 164.29666,370.92719 C 154.17651,371.28495 147.66385,371.93073 146.94935,372.64731 C 146.32017,373.27833 144.89179,378.67833 143.77519,384.64731 C 142.65859,390.61629 141.05764,396.2875 140.21752,397.25 C 138.1102,399.66429 120.26839,399.86298 119.35484,397.48233 z M 178.85135,351.72269 C 184.70488,349.76582 185.88545,348.92325 188.72307,344.67731 C 192.35219,339.24704 193.75463,335.03768 194.64098,326.91499 C 195.43056,319.67917 193.30149,314.87817 188.17273,312.32926 C 183.31877,309.91691 162.50382,309.12604 159.64994,311.24552 C 157.96911,312.49381 155.45467,322.97675 150.66336,348.71131 C 149.61624,354.33552 151.77108,355.38158 162.80599,354.60591 C 168.14597,354.23054 175.07303,352.98581 178.85135,351.72269 z M 299.31541,397.37957 C 298.52267,395.3137 317.52574,297.27638 319.08252,295.40057 C 320.02105,294.26971 324.8911,294.00334 344.37244,294.01736 C 380.31959,294.04323 388.27567,296.38986 394.73749,308.87242 C 397.64467,314.48834 397.99871,316.06376 397.98813,323.33737 C 397.96744,337.56773 393.72015,348.1828 384.24008,357.69733 C 374.32956,367.64386 363.91476,370.95408 342.44113,370.98264 C 333.29115,370.9948 328.84712,371.39131 327.59445,372.30728 C 326.36869,373.20358 325.09512,377.1266 323.54333,384.78611 C 322.29851,390.93047 320.71191,396.6422 320.01756,397.47884 C 318.11865,399.76689 300.19854,399.68096 299.31541,397.37957 z M 357.33165,352.32691 C 361.24348,351.2293 364.39034,349.54299 366.54196,347.39137 C 373.54407,340.38927 376.93122,322.46203 372.41007,316.33313 C 368.86279,311.52441 365.6236,310.53045 352.32544,310.17005 C 340.50344,309.84965 340.1071,309.90757 338.6391,312.17005 C 337.80763,313.45152 335.71505,321.925 333.98892,331 C 332.2628,340.075 330.6266,348.44781 330.35293,349.60624 C 330.05949,350.84836 330.58515,352.4423 331.63419,353.49133 C 333.18129,355.03843 334.58396,355.18705 342.40133,354.63216 C 347.3449,354.28126 354.06354,353.24389 357.33165,352.32691 z M 216.07193,369.58667 C 215.15581,368.48281 217.01148,357.26065 224.54652,318.33667 C 232.53671,277.06151 234.54002,268.19936 236.20782,266.75 C 238.73978,264.54966 254.08424,264.19166 255.82758,266.29225 C 256.60123,267.22444 256.29916,270.84475 254.74343,279.28565 C 253.01463,288.66558 252.8355,291.23609 253.84043,292.2434 C 254.69081,293.0958 260.46679,293.70298 271.79703,294.13105 C 280.98366,294.47812 290.075,295.32685 292,296.01711 C 299.55727,298.72697 303.98714,305.25223 304.0167,313.71788 C 304.04081,320.62267 294.95834,367.15528 293.17766,369.25 C 291.03569,371.76974 273.26506,371.85431 272.30381,369.34934 C 271.95543,368.44147 273.54455,357.95143 275.8352,346.03814 C 278.12584,334.12484 280,322.05301 280,319.21185 C 280,311.76761 277.88864,310.60596 263.52979,310.15015 C 253.91331,309.84488 252.17944,310.04059 250.24571,311.64953 C 248.34466,313.23128 247.27144,317.42079 242.85511,340.5 C 239.84652,356.22259 237.06231,368.23094 236.18927,369.25 C 234.2098,371.56054 217.93612,371.83288 216.07193,369.58667 z" style="fill: rgb(87, 93, 152);"/>
  <path id="path2495" d="M 151.19286,894.99079 C 131.47143,892.23262 118.18487,884.19836 112.38138,871.52187 L 109.9224,866.15075 L 110.2112,808.82538 L 110.5,751.5 L 112.83728,747 C 121.57271,730.18156 143.36659,722.36813 174.05702,725.05179 C 189.37393,726.39115 198.64259,729.86406 206.68501,737.2773 C 215.19811,745.1244 217.97628,753.30333 217.99245,770.56634 C 218.00793,787.10033 215.23074,794.93174 206.12519,804.03081 C 197.77225,812.37781 192.21731,814 171.98733,814 C 153.69773,814 148.1333,815.22613 142.76576,820.43902 C 137.00736,826.0315 135.72976,830.81146 136.15575,845.16933 C 136.61631,860.69202 138.38025,864.57118 146.86612,868.72293 C 154.08422,872.25441 166.85063,873.05746 175.55353,870.52746 C 184.60847,867.89512 190.96762,860.16184 190.99442,851.75 C 190.99946,850.16909 192.31871,850 204.64822,850 L 218.29643,850 L 217.68643,857.75 C 216.84582,868.42978 214.64906,874.12865 208.98326,880.32794 C 203.1484,886.7122 196.59645,890.41776 186.64107,892.96392 C 177.79425,895.22656 160.10898,896.23777 151.19286,894.99079 z M 144.89922,793.13606 C 146.7688,792.51123 153.9688,791.99749 160.89922,791.99442 C 175.56394,791.98793 179.71742,791.06501 184.67629,786.71107 C 189.46588,782.50576 191,778.49763 191,770.1894 C 191,760.3466 188.26519,755.48324 180.49039,751.5 C 175.0617,748.71873 173.86428,748.50167 164.06738,748.52294 C 155.23232,748.54211 152.68239,748.91896 148.51246,750.82178 C 137.08306,756.03723 136,758.7061 136,781.65497 L 136,799.37418 L 138.75,796.82316 C 140.2625,795.42009 143.02965,793.7609 144.89922,793.13606 z M 277.02129,894.94013 C 263.32471,893.23448 254.43718,889.41821 246.35058,881.77024 C 239.75518,875.53259 237.20588,869.20774 236.33351,856.91774 L 235.70051,848 L 249.21097,848 L 262.72142,848 L 263.32573,853.10245 C 264.77209,865.31467 271.81057,870.89879 286.8351,871.75404 C 306.93368,872.89813 315.7983,867.09638 317.61493,851.60917 C 318.42661,844.68941 316.6187,838.69059 312.27135,833.87859 C 307.51619,828.6152 306.70462,828.23633 280.28386,818.9458 C 267.83981,814.57 255.78506,809.892 253.49551,808.55024 C 247.86127,805.24835 242.31603,798.90383 239.13517,792.12001 C 236.63158,786.78063 236.50019,785.70105 236.50374,770.5 C 236.5073,755.2765 236.63641,754.22458 239.16415,748.82485 C 247.04955,731.98013 262.11831,724.8743 290,724.85267 C 301.4537,724.84379 306.14163,725.27311 312.31395,726.89616 C 333.55845,732.48254 344,744.22749 344,762.53751 L 344,770 L 331.09974,770 L 318.19948,770 L 317.00443,765.01847 C 314.08885,752.86496 307.08513,748.5 290.5,748.5 C 278.40422,748.5 272.70818,750.36685 267.62008,755.99876 C 263.60578,760.44211 262.6001,764.37883 263.17457,773.40067 C 263.60122,780.10109 266.39835,785.24923 271.38886,788.51913 C 272.62948,789.33202 283.96202,793.60778 296.57227,798.0208 C 309.18252,802.43383 321.71421,807.04698 324.42046,808.27225 C 330.84189,811.17957 337.17374,817.60593 340.6677,824.76201 C 343.31501,830.18402 343.48894,831.37886 343.82626,846.45985 C 344.28562,866.99732 342.95769,872.6968 335.91889,880.39837 C 330.38043,886.45832 321.70288,891.1731 311.93539,893.42933 C 303.52071,895.37306 286.43481,896.11241 277.02129,894.94013 z M 78.5,892.30244 C 63.108847,890.26108 48.116936,880.96146 42.791964,870.15241 L 40.5,865.5 L 40.212512,806.25 L 39.925024,747 L 29.462512,747 L 19,747 L 19,735.5 L 19,724 L 29.5,724 L 40,724 L 40,703 L 40,682 L 53,682 L 66,682 L 66,703 L 66,724 L 80,724 L 94,724 L 94,735.5 L 94,747 L 79.951659,747 L 65.903317,747 L 66.201659,800.75 L 66.5,854.5 L 68.803287,858.51718 C 72.523533,865.00568 77.716556,867.67323 90.25,869.53391 L 94,870.09063 L 94,881.54531 L 94,893 L 87.75,892.85017 C 84.3125,892.76776 80.15,892.52128 78.5,892.30244 z M 427.75962,891.95214 C 410.16818,889.90336 396.41103,880.62501 391.02723,867.1784 C 389.80337,864.12167 389.49883,853.6554 389.2253,805.25 L 388.89614,747 L 378.94807,747 L 369,747 L 369,735.5 L 369,724 L 379,724 L 389,724 L 389,703 L 389,682 L 402.5,682 L 416,682 L 416,703 L 416,724 L 429.5,724 L 443,724 L 443,735.5 L 443,747 L 429.5,747 L 416,747 L 416.02196,800.25 C 416.04239,849.77727 416.17234,853.77964 417.88073,857.5 C 420.15155,862.44515 422.19551,864.30007 428.53654,867.17028 C 433.17844,869.27139 435.16825,869.4429 459.25,869.81748 L 485,870.218 L 485,881.609 L 485,893 L 459.75,892.86857 C 445.8625,892.79629 431.46683,892.38389 427.75962,891.95214 z M 510,443.97525 C 510,442.7668 509.04708,441.5882 507.63638,441.05185 C 504.41691,439.82781 503.58828,437.34093 506.17455,436.6646 C 507.29444,436.37175 508.00797,435.53991 507.76018,434.81607 C 507.27682,433.40413 503.03313,433.2705 499.08133,434.54279 C 497.02916,435.20348 496.7657,435.05297 497.34263,433.54949 C 497.89843,432.10111 497.60964,431.87472 495.7613,432.30979 C 490.82437,433.47187 477.92281,435.25614 477.50173,434.83506 C 477.25559,434.58893 477.48247,432.83652 478.0059,430.94082 C 478.56455,428.91752 478.61304,425.31455 478.1233,422.21649 C 477.66445,419.3138 477.50146,415.82763 477.76109,414.46944 C 478.22666,412.03398 476.70729,411.04657 475.5,413 C 474.33675,414.88218 473.04591,413.9984 471.11207,409.99582 C 470.04803,407.79352 469.5427,406.21737 469.9891,406.49326 C 470.4355,406.76915 471.66531,405.30853 472.72201,403.24744 C 475.34045,398.1402 474.42533,394.84735 469.9593,393.30644 C 468.05668,392.64999 467.31754,392.08749 468.31675,392.05644 C 470.72621,391.98159 480.68176,383.32497 481.36554,380.71017 C 482.73786,375.4624 479.10072,376.53981 474.91722,382.62032 C 472.35062,386.35074 471.3974,387 468.48714,387 C 466.13253,387 464.74856,386.3987 464.03518,385.06574 C 462.5944,382.37361 462.8172,376.25108 464.52884,371.5 C 465.32141,369.3 465.97666,367.3875 465.98494,367.25 C 465.99322,367.1125 463.98773,367 461.52828,367 C 456.81032,367 457.37938,367.41893 447.72827,356.84069 C 445.9568,354.89904 444.38289,354.02283 443.36693,354.41269 C 442.20742,354.85764 441.94361,354.58934 442.3919,353.4211 C 443.37778,350.85195 441.9936,349.69581 440.0441,351.46009 C 438.45596,352.89734 438.16253,352.90076 436.99636,351.49561 C 435.55034,349.75327 436.19501,348.03172 440.50452,342.12718 C 443.68543,337.76896 442.62135,336.03053 438.93472,339.56254 L 436.08883,342.28907 L 434.86919,339.61224 C 433.8755,337.43134 433.96228,335.5982 435.33759,329.7177 C 437.52113,320.38137 437.47496,319.6441 434.49775,316.30576 C 432.05716,313.56914 431.95859,313.54783 430.49775,315.44113 C 429.06062,317.30369 429,317.27024 429,314.61451 C 429,312.03879 429.25331,311.86859 432.65108,312.16132 C 435.62536,312.41757 436.66381,311.9915 438.2531,309.86282 C 441.04147,306.12809 439.33371,303.62465 431.60804,300.12166 C 428.13583,298.54728 424.62571,296.30371 423.80777,295.13594 C 422.09935,292.69684 421,293.29618 421,296.66667 C 421,298.33333 420.42857,299 419,299 C 416.2172,299 416.47544,297.94134 420.49029,292.89073 C 427.10254,284.57264 423.83242,281.50471 416.21797,288.88256 L 411.29817,293.64949 L 408.39994,291.33852 C 405.78204,289.25108 405.63146,288.81977 406.84315,286.87955 C 408.09405,284.87654 408.01885,284.76324 405.72901,285.20097 C 403.78254,285.57306 403.3668,285.31337 403.72375,283.94838 C 403.98064,282.96603 402.89787,280.79805 401.20294,278.9011 C 398.4208,275.78734 398.32824,275.42868 399.74771,273.26229 C 401.12244,271.16419 401.09722,270.7649 399.47681,268.97438 C 398.49408,267.88847 397.15048,267 396.49104,267 C 395.83159,267 394.09572,265.89128 392.63354,264.53618 C 391.03103,263.05102 389.3395,262.31623 388.37508,262.68631 C 387.03492,263.20058 386.88893,262.78218 387.47595,260.10949 C 388.74486,254.33218 382.38408,248.54531 379.88912,253.20719 C 378.8917,255.07088 378.563,254.81129 375.80438,249.98112 C 373.62209,246.16008 372.96049,243.94756 373.37717,241.86413 C 373.91577,239.17116 372.77922,237.93017 371.56847,239.88922 C 370.60626,241.44611 365.8729,242.13941 364.42272,240.93587 C 363.24467,239.95817 363.25902,239.46828 364.51838,237.6703 C 367.25272,233.76648 365.82561,229 361.92244,229 C 360.99979,229 359.71484,229.63868 359.06699,230.41928 C 358.13987,231.5364 358.24759,232.03918 359.57296,232.7809 C 360.8113,233.4739 360.93521,233.92201 360.04128,234.47449 C 357.76245,235.88288 356.61215,233.35056 358.00418,229.9899 C 359.11913,227.29817 359.07209,226.64352 357.66244,225.23387 C 356.14956,223.72099 355.79495,223.81901 352.90248,226.5496 L 349.77717,229.5 L 350.34852,226.5 C 350.66277,224.85 351.46349,219.12925 352.12792,213.78722 C 352.79234,208.44519 353.59787,203.66793 353.91798,203.1711 C 354.23809,202.67426 356.99585,202.06559 360.04634,201.8185 L 365.59268,201.36923 L 367.22208,205.18462 C 368.12521,207.29938 369.55317,209 370.42574,209 C 372.89014,209 376,205.27319 376,202.31989 L 376,199.63978 L 378.85908,202.84216 C 381.35421,205.63689 381.87897,205.85075 382.98152,204.52226 C 384.63785,202.52651 388.08075,202.594 392.51631,204.70917 C 395.568,206.16442 396.42729,206.22077 398.30024,205.08845 C 399.74727,204.21364 399.35583,204.96135 397.15631,207.27355 C 393.00692,211.63552 393.21951,214.37449 397.74144,214.81211 C 400.69956,215.09839 401.10615,214.77518 402.65384,210.90712 C 404.17278,207.1109 404.42075,206.9051 405.13837,208.84501 C 406.06665,211.35439 406.62459,211.42956 410,209.5 C 414.31072,207.03577 416.81048,207.61065 418.4078,211.43358 C 420.13843,215.57556 423.4175,217.40723 432.01277,219.03322 C 439.12653,220.37895 441.61354,221.95876 440.63454,224.50998 C 440.12693,225.83279 439.20906,226.04217 436.16916,225.52858 C 433.33966,225.05054 432.0084,225.28495 431.05949,226.42832 C 429.05225,228.8469 430.52648,230.99584 434.21862,231.03327 L 437.5,231.06654 L 435.09001,233.07311 C 433.76451,234.17673 431.96451,235.48373 431.09001,235.97757 C 429.83554,236.68597 429.75806,237.13609 430.72287,238.1106 C 431.66335,239.06051 432.52934,239.07985 434.47287,238.19431 C 436.00294,237.49717 437,237.42896 437,238.02144 C 437,240.03507 439.59044,238.90905 442.20477,235.75901 C 444.47552,233.02296 444.81763,232.8619 444.33675,234.75533 C 443.77073,236.98398 445.39121,240 447.15467,240 C 447.65505,240 448.42662,239.02095 448.86928,237.82434 C 449.55861,235.96091 449.84835,236.34067 450.88829,240.47064 C 451.84085,244.25359 453.35351,246.50004 457.9085,250.8963 C 461.10182,253.97833 464.48773,257.71034 465.43274,259.18965 C 466.37775,260.66896 467.73391,261.6556 468.44643,261.38218 C 469.15895,261.10877 470.03031,261.6366 470.38279,262.55515 C 470.87697,263.84297 471.33723,263.96501 472.39357,263.08833 C 473.51628,262.15656 473.89311,262.99337 474.48186,267.7257 C 475.26228,273.99872 477.57057,281.70337 479.31173,283.84695 C 480.20684,284.94895 480.55031,284.85802 481.20036,283.34695 C 481.67009,282.25506 481.74154,282.90843 481.37514,284.94516 L 480.75536,288.39031 L 483.37768,286.6721 L 486,284.95389 L 486,287.9921 C 486,290.29379 489.92863,299.13997 492.59003,302.83102 C 492.7213,303.01308 493.78174,302.65199 494.94656,302.0286 C 496.92256,300.97108 497.01766,301.08286 496.36634,303.69758 C 495.75633,306.14642 495.86365,306.33911 497.21693,305.22482 C 498.54675,304.12985 498.82927,304.38338 499.21607,307.01885 C 499.46383,308.70691 499.29157,310.3198 498.83327,310.60305 C 497.65204,311.33308 497.79846,314.75741 499.0438,315.52707 C 500.63171,316.50846 503.32116,313.92116 502.04238,312.64238 C 500.31394,310.91394 500.8551,310 503.60699,310 C 505.69762,310 506.07128,309.65339 505.49354,308.25 C 503.75344,304.0232 503.72787,302.95834 505.38172,303.59298 C 507.95825,304.58169 511.80874,303.17796 512.50074,300.99768 C 512.99552,299.43874 514.01459,299 517.14071,299 C 520.41565,299 521.08609,298.68066 520.81477,297.25 C 520.61461,296.19452 519.3949,295.37442 517.74145,295.18358 C 516.23365,295.00955 515,294.35179 515,293.7219 C 515,293.09201 517.5497,290.20375 520.666,287.30354 C 523.7823,284.40333 526.39399,281.18888 526.46977,280.16032 C 526.54555,279.13175 527.61985,276.98741 528.8571,275.3951 C 530.09436,273.8028 532.19046,270.81786 533.51511,268.76191 L 535.92356,265.02382 L 533.43487,263.71987 L 530.94618,262.41591 L 534.07086,260.10573 C 536.24849,258.49574 536.87806,257.47806 536.14803,256.74803 C 535.418,256.018 536.11124,254.5197 538.43527,251.80459 C 540.26938,249.66184 543.17237,245.2776 544.88635,242.06184 C 547.55309,237.05853 547.77429,236.12736 546.41955,235.6075 C 543.8696,234.629 540.49397,234.90603 539.2,236.2 C 538.26667,237.13333 538,237.00761 538,235.63426 C 538,232.56124 539.77282,230.36109 546.52421,225.05538 C 553.71448,219.40477 557.74152,214.07632 555.75136,212.84633 C 554.9927,212.37745 555.63266,211.70643 557.53388,210.97729 L 560.5,209.83975 L 557.75,208.38794 C 554.29408,206.56345 554.32069,205.71725 558.03778,199.23571 C 561.25131,193.63221 567.92852,188.01 571.40004,187.98469 C 575.70182,187.95332 576.32917,186.45477 573.15771,183.78616 L 570.17552,181.27681 L 574.56837,177.60484 C 576.98443,175.58526 581.6897,170.3486 585.02451,165.96781 C 588.59975,161.27117 592.60858,157.19962 594.7939,156.04556 C 596.83225,154.96912 597.825,154.0585 597,154.02196 C 594.79193,153.92417 599.86913,150.21674 603.25,149.45814 C 604.7625,149.11876 606,148.62182 606,148.35382 C 606,148.08583 604.78267,146.27056 603.29483,144.31989 C 600.84543,141.10856 600.74461,140.65992 602.22853,139.57485 C 603.12991,138.91574 604.16266,137.05426 604.52352,135.43823 C 606.09737,128.39007 607.3094,125.89895 609.83102,124.52952 C 611.76848,123.47735 612.02035,123.0691 610.75,123.04004 C 609.7875,123.01802 609,122.57634 609,122.05853 C 609,121.54073 614.0888,116.64022 620.30844,111.16853 C 633.76733,99.328131 639.82501,92.778096 642.51411,87.15801 C 643.90945,84.241809 644.94606,83.187997 646,83.614269 C 649.68889,85.106259 655.94079,85.172822 658.65711,83.749027 C 675.18489,75.08578 675.0426,75.185455 673.32887,73.471724 C 672.28595,72.428802 670.94762,72.085642 669.60092,72.515843 C 664.85462,74.032042 661.70594,74.28481 662.44415,73.090372 C 662.84468,72.442294 662.4586,70.82267 661.5862,69.491207 C 659.43537,66.20863 659.5698,65.517044 662.62967,64.122874 C 664.78968,63.138705 665.56278,63.199337 666.95841,64.462359 C 670.83105,67.96705 674.20916,65.109488 670.72388,61.27712 L 668.70233,59.05424 L 672.09456,60.02712 C 677.12345,61.469385 677.39923,61.364456 680.71511,56.74717 C 682.3949,54.408113 687.75868,48.194244 692.63463,42.938573 C 697.51058,37.682902 702.38983,31.721675 703.4774,29.691403 C 705.80599,25.344416 706.64648,25.130007 708.17839,28.492184 C 708.91321,30.104927 709.69962,30.672492 710.40695,30.100564 C 711.00813,29.614471 713.975,28.69822 717,28.06445 C 723.05052,26.7968 725.08385,25.606737 726.84327,22.30339 C 727.79679,20.513132 727.72426,19.945068 726.45119,19.23262 C 725.06883,18.459012 725.11542,18.079037 726.85624,15.929231 C 728.6741,13.68428 729.5025,13.5 737.77649,13.5 C 745.43099,13.5 746.45917,13.68954 744.86483,14.806704 C 742.6808,16.337072 742.47399,18.324904 744.30595,20.178571 C 745.67867,21.567558 747.24466,25 746.50564,25 C 746.26826,25 743.69488,25.937242 740.78702,27.08276 L 735.5,29.165519 L 737.82521,26.688256 C 739.39672,25.013975 739.78347,23.984211 739.01837,23.511353 C 736.85598,22.174923 733.15298,24.0164 731.00104,27.498322 C 729.81075,29.424245 728.36848,31 727.796,31 C 726.18344,31 728.99396,33.945517 732.17717,35.591617 C 735.98023,37.558259 736.18133,42.504629 732.52592,44.170142 C 730.51749,45.085248 728.99509,44.893006 724.43694,43.148703 C 721.34874,41.966916 717.28707,41 715.41102,41 C 712.99224,41 712,40.547721 712,39.445209 C 712,38.218126 711.02042,37.954659 707.35243,38.195209 C 702.03386,38.544005 699.74747,40.764733 701.61995,43.763057 C 702.45899,45.10657 702.39171,45.844665 701.34069,46.82646 C 697.19644,50.69777 708.50597,51.297511 715.8145,47.594002 L 720.56251,45.188004 L 722.81975,47.722172 C 724.06123,49.115965 724.94717,50.37953 724.7885,50.530096 C 724.62982,50.680661 720.54027,52.396688 715.70059,54.343489 C 702.6792,59.581457 694.19708,64.666931 687.75,71.101319 C 681.44924,77.389679 680.50621,80 684.53518,80 C 686.79227,80 686.94836,80.227966 685.95818,82.078141 C 685.34648,83.221118 685.09152,84.796118 685.39161,85.578141 C 685.6917,86.360163 685.58129,87 685.14625,87 C 684.71121,87 683.12909,88.872818 681.63044,91.161818 C 678.38878,96.113044 679.30421,97.311979 685.63177,96.402345 C 688.0069,96.060903 690.0291,96.238061 690.38816,96.819037 C 691.0093,97.824064 687.52091,99.323136 677,102.57236 C 673.975,103.50659 670.15,104.93636 668.5,105.74964 C 665.25943,107.3469 660,111.90777 660,113.12067 C 660,113.53124 661.2375,114.01461 662.75,114.19484 C 664.43814,114.39599 662.04853,115.18091 656.5614,116.22763 C 645.94212,118.25335 642.93767,120.37302 644.82242,124.50959 C 645.99784,127.08937 646.05181,127.10013 654.4156,126.4215 C 662.7382,125.7462 662.83024,125.76407 663.16335,128.11951 C 663.39888,129.78496 664.47611,130.81551 666.74962,131.55038 C 669.27653,132.36716 669.73244,132.86756 668.79962,133.80038 C 666.9779,135.6221 663.58611,135.2543 656.80772,132.5 C 651.31156,130.26671 647,129.33222 647,130.37427 C 647,130.58012 647.68338,132.68546 648.51863,135.05281 C 649.67727,138.33673 649.79031,140.10533 648.99552,142.51359 C 646.85967,148.98527 638.81429,154 630.5673,154 C 625.84215,154 624,155.63023 624,159.81181 C 624,163.18731 626.67699,164.26268 636.27174,164.74148 C 644.83688,165.16889 645.7515,165.02599 649,162.75274 C 650.925,161.40565 652.37197,159.73861 652.21548,159.04819 C 651.72579,156.88768 653.07114,154 654.56739,154 C 656.90042,154 656.22312,158.44176 653.5,161 C 652.125,162.29175 651,164.35349 651,165.58164 C 651,167.91271 641.88501,177 639.54683,177 C 637.37464,177 635,173.44509 635,170.19325 L 635,167.04399 L 628.29531,172.27199 C 609.58597,186.86069 604.58082,194.50687 607.94623,203.35857 C 608.88989,205.8406 608.90683,205.84352 614.19623,204.43554 C 617.1133,203.65905 619.66486,203.0184 619.86636,203.01187 C 620.06786,203.00534 618.60536,204.8013 616.61636,207.00288 C 612.52809,211.52812 612.21671,212.98116 614.82874,215.34501 C 617.09605,217.3969 618,217.44108 618,215.5 C 618,214.56667 618.94444,214 620.5,214 C 621.875,214 623,214.19197 623,214.42661 C 623,214.66124 620.4125,216.30974 617.25,218.08994 C 614.0875,219.87014 611.3362,221.45447 611.136,221.61067 C 610.93579,221.76687 611.72329,223.10406 612.886,224.5822 C 614.0487,226.06033 615,227.88403 615,228.63486 C 615,230.86816 612.72839,230.19221 610.39367,227.26419 L 608.21221,224.52838 L 604.60611,226.24801 C 600.52051,228.1963 600.36244,228.64475 602.62351,231.87287 C 604.27209,234.22654 605.46143,234.30541 612,232.49464 C 613.375,232.11385 611.76165,233.53428 608.41477,235.65115 C 598.85973,241.69463 597.67981,242.72321 598.33716,244.43623 C 598.6672,245.2963 599.87791,246 601.02763,246 C 604.07927,246 602.466,247.87133 597.62567,249.94613 C 591.87241,252.41226 590.3917,254.36952 591.85298,257.57667 C 593.31571,260.78702 593.29742,261 591.55902,261 C 589.47129,261 588.50845,263.07456 590.12188,264.09649 C 591.23214,264.79971 591.18139,264.97235 589.86078,264.98469 C 588.95922,264.99311 587.17381,265.84842 585.89322,266.88538 C 583.94025,268.4668 583.77231,269.02072 584.85153,270.32111 C 585.5592,271.17379 587.44561,272.1586 589.04356,272.50957 C 590.72345,272.87853 593.22673,274.76107 594.97841,276.97274 L 598.0079,280.79779 L 594.44679,282.89889 C 592.48818,284.0545 590.29864,285 589.58116,285 C 588.86367,285 585.19504,286.39726 581.42865,288.10502 C 575.65389,290.72342 573.67319,291.14441 568.79033,290.79121 C 562.62228,290.34506 561.79445,290.98735 565,293.73203 C 566.1,294.67388 567.00285,295.90697 567.00632,296.47224 C 567.0098,297.03751 568.3598,298.26657 570.00632,299.20349 C 572.32288,300.52168 573,301.6094 573,304.01251 C 573,306.10529 573.3765,306.88535 574.15451,306.40451 C 574.90619,305.93995 575.03594,306.13282 574.52639,306.95729 C 574.07048,307.69497 574.31908,308.588 575.12188,309.09649 C 576.23139,309.79924 576.17976,309.97236 574.85699,309.98469 C 573.33421,309.99888 572,311.91222 572,314.08179 C 572,314.5868 573.575,315 575.5,315 C 579,315 579,315 577,317 C 574.20337,319.79663 574.4944,320.80325 578.25,321.32346 C 580.97575,321.70101 580.85028,321.76022 577.47213,321.69051 C 575.2568,321.6448 572.8943,321.94729 572.22213,322.36272 C 571.49828,322.81008 570.99376,322.58433 570.98469,321.80902 C 570.94802,318.67428 569.47336,317.91715 566.3953,319.45269 C 563.96713,320.66401 562.19496,320.74216 556.66773,319.88165 C 546.62366,318.31793 544.16507,320.42318 541.93154,332.5 C 540.89139,338.12415 537.4287,342 533.44424,342 C 530.00068,342 530.40673,343.59754 534.18507,344.91467 C 535.93685,345.52535 538.16982,346.7487 539.14722,347.63323 C 540.79305,349.12268 541.15439,349.04787 544.03923,346.62045 C 547.1479,344.00467 547.96264,343.69043 555.49471,342.20205 C 560.00793,341.31022 561.40367,338.49956 558.41761,336.3161 C 556.80787,335.13902 557.00077,335 560.24377,335 C 562.23809,335 565.03048,334.55871 566.44909,334.01935 C 568.91412,333.08215 568.99453,333.15968 568.26419,335.76935 C 567.84389,337.27121 567.62561,341.72802 567.77913,345.67337 C 568.03497,352.24845 567.8798,352.90338 565.91858,353.52584 C 564.74176,353.89935 562.14116,355.66561 560.13946,357.45086 C 555.04215,361.99699 548.13284,364.42712 542.49987,363.65504 C 538.59967,363.12046 538,363.27901 538,364.84482 C 538,365.83842 539.125,367.70825 540.5,369 C 543.56955,371.88369 543.5969,372.4065 540.75,373.77951 C 538.9496,374.64781 538.85101,374.87816 540.25661,374.93232 C 541.22275,374.96954 542.9914,376.125 544.18695,377.5 C 546.94667,380.67396 549.68707,380.80101 549.5794,377.75 C 549.51533,375.93447 550.81808,374.85494 556.32603,372.15937 C 560.08035,370.32202 563.27945,368.97202 563.43515,369.15937 C 563.59085,369.34671 564.00452,371.68483 564.35441,374.35518 C 564.88793,378.42698 564.74791,379.11724 563.4866,378.63323 C 562.65942,378.31581 560.74904,378.5271 559.24132,379.10276 C 556.71098,380.06886 556.63567,380.24907 558.26275,381.44427 C 559.92218,382.66324 559.89771,382.82397 557.84525,384.18675 C 555.67488,385.62783 555.67264,385.66476 557.35135,392.34772 C 559.21082,399.75029 558.7981,401.52336 554.48406,404.66592 C 552.14932,406.36666 552.03223,406.794 553.0785,409.79535 C 553.70626,411.59612 554.0078,414.17885 553.74861,415.53474 C 553.13921,418.7226 556.22469,418.945 558.37952,415.86854 C 559.25729,414.61536 560.49281,413.97513 561.37796,414.3148 C 563.21431,415.01947 566.49631,419.83703 565.6896,420.64374 C 565.36987,420.96346 558.45214,422.31464 550.31685,423.64635 C 537.17068,425.79832 535.19031,426.3825 532.51271,428.89831 C 530.85572,430.45517 525.9,434.56245 521.5,438.02559 C 517.1,441.48874 513.6125,444.69972 513.75,445.16111 C 513.8875,445.6225 513.1,446 512,446 C 510.65852,446 510,445.33333 510,443.97525 z M 551,401.51905 C 551,399.66412 551.67421,398.86889 553.67194,398.36749 L 556.34388,397.69688 L 554.06116,395.84844 C 551.7977,394.0156 544.56149,393.25035 543.67437,394.75 C 543.43035,395.1625 542.91424,397.4125 542.52746,399.75 L 541.8242,404 L 546.4121,404 C 550.6298,404 551,403.79981 551,401.51905 z M 461,436.57083 C 461,434.33771 462.15277,434.05658 468.568,434.72517 C 474.85248,435.38013 474.13953,435.94437 465.25,437.3511 C 461.89164,437.88254 461,437.71884 461,436.57083 z M 464,396.55902 C 464,393.053 465.47916,392.6288 465.60648,396.0983 C 465.66505,397.69424 465.32755,399 464.85648,399 C 464.38542,399 464,397.90156 464,396.55902 z M 551.58269,331.88638 C 549.02807,329.87692 548.97979,329.67982 550.60282,327.88638 C 552.75974,325.50302 555.22122,325.48197 557.34501,327.82874 C 559.51532,330.2269 559.4354,331.69661 557.06574,332.96482 C 554.55082,334.31076 554.70279,334.34065 551.58269,331.88638 z M 646.16478,153.51203 C 648.72555,148.78406 651.50639,146.17306 652.70478,147.37145 C 652.93497,147.60164 651.71072,149.39882 649.98422,151.36519 C 648.25772,153.33156 647.09087,155.33801 647.39121,155.82398 C 647.69155,156.30994 646.8908,157.18436 645.61175,157.76713 C 643.31177,158.81507 643.31785,158.76832 646.16478,153.51203 z M 753.82111,21.131685 C 751.39202,20.558902 751.2554,20.290262 752.35592,18.250703 L 753.56962,16.001406 L 755.34134,19.000703 C 756.31579,20.650316 756.97513,21.946758 756.80654,21.881685 C 756.63794,21.816612 755.2945,21.479112 753.82111,21.131685 z" style="fill: rgb(5, 185, 5);"/>
</svg>